<?xml version="1.0" encoding="utf-8"?>
<!-- Generator: Adobe Illustrator 23.0.1, SVG Export Plug-In . SVG Version: 6.00 Build 0)  -->
<svg version="1.1" id="Layer_1" xmlns="http://www.w3.org/2000/svg" xmlns:xlink="http://www.w3.org/1999/xlink" x="0px" y="0px"
	 viewBox="0 0 200 200" style="enable-background:new 0 0 200 200;" xml:space="preserve">
<style type="text/css">
	.st0{fill:rgba(0, 0, 0, 1);}
</style>
<path class="st0" d="M178.9,57.3c0.1,0,0.1-0.1,0.1-0.2l-16.5-16h0c0,0-0.1-5-0.2-7.1C161.3,15.2,145.6,0,126.7,0
	C111.2,0,97.9,9.8,93,23.7c0,0.1-0.2,0.1-0.2,0C87.9,9.9,74.7,0,59.2,0c-19,0-35.3,16.6-35.7,36.3v142.9c0,0.5,0.2,1.1,0.6,1.4
	l18.8,18.8c0.4,0.4,0.9,0.6,1.4,0.6c0.2,0,0.5,0,0.7-0.1c0.7-0.3,1.2-1,1.2-1.8l0.2-140.6c0-0.1,0-0.1,0.1-0.1h25.7
	c0.1,0,0.1,0,0.1,0.1V63c0,11.5,9,20.6,20.6,20.6c0.1,0,0.1,0,0.2,0v24.3V171c0,0.1,0.1,0.1,0.2,0.1l18.2-18.2c0,0,0,0,0-0.1v-81
	c0,0,1.9-5.6,1.9-8.8v-5.6c0-0.1,0-0.1,0.1-0.1h25.9c0.1,0,0.1,0,0.1,0.1v32.8c0,0.6,0.2,1.1,0.6,1.5l19,18.2
	c0.6,0.5,1.4,0.7,2.1,0.4c0.7-0.3,1.2-1,1.2-1.8V57.4c0-0.1,0-0.1,0.1-0.1H178.9z M76.1,63V42.8c0-1.1-0.9-2-2-2H44.4
	c-1.1,0-1.9,0.9-1.9,1.9l-0.2,150.5c0,0.1-0.1,0.1-0.2,0.1l-14.8-14.8c0,0,0,0,0-0.1V36.4c0.4-17.6,15-32.5,31.9-32.5
	c16.9,0,30.8,13.2,31.7,30.1c0.1,1,0.9,1.8,1.9,1.8c1,0.1,1.9-0.7,2-1.7l0.2-1.6c1.7-16.3,15.3-28.6,31.7-28.6
	c17.1,0,31.3,14,31.7,31.2c0,0.3,0,4.9,0,5.6c0,0.1,0,0.1-0.1,0.1h-16.8h-29.9c-1.1,0-2,0.9-2,2v19.5c0,10.3-8.5,18.6-18.8,17.4
	C82.4,78.6,76.1,71.7,76.1,63z M158.4,103.9l-15-14.4c0,0,0,0,0-0.1v-32c0-0.1,0-0.1,0.1-0.1h15c0.1,0,0.1,0,0.1,0.1v46.3
	C158.6,103.9,158.5,103.9,158.4,103.9z"/>
</svg>
