<?xml version="1.0" encoding="utf-8"?>
<!-- Generator: Adobe Illustrator 23.0.1, SVG Export Plug-In . SVG Version: 6.00 Build 0)  -->
<svg version="1.1" id="Layer_1" xmlns="http://www.w3.org/2000/svg" xmlns:xlink="http://www.w3.org/1999/xlink" x="0px" y="0px"
	 viewBox="0 0 75.8 104.1" style="enable-background:new 0 0 75.8 104.1;" xml:space="preserve">
<style type="text/css">
	.st0{display:none;fill:#191937;}
	.st1{fill:none;stroke:#303030;stroke-width:2;stroke-miterlimit:10;}
	.st2{fill:none;stroke:#303030;stroke-width:2;stroke-linecap:round;stroke-miterlimit:10;}
	.st3{fill:#303030;}
</style>
<rect x="-20.2" y="-25.2" class="st0" width="114" height="152"/>
<g>
	<path class="st1" d="M71.6,18.3C71.3,8.8,63.6,1.2,54,1.2c-9.1,0-16.6,6.9-17.5,15.8l-0.1,0.8C35.9,8.5,28.3,1.2,18.9,1.2
		C9.4,1.2,1.6,9.6,1.4,19.1v74.3c0,5.4,4.4,9.8,9.8,9.8l0,0V19.1c0-4.2,3.2-7.9,7.4-8.1c4.3-0.2,8,3.1,8.2,7.4l0.1,14.5
		c0,5.4,4.3,9.7,9.7,9.7s9.7-4.3,9.7-9.7c0-0.3,0-14.1,0-14.1c0-4.5,3.8-8.1,8.3-7.8c4.2,0.3,7.3,3.9,7.3,8c0,6.4,0,23.2,0,30.7
		c0,2.7,2.1,4.8,4.8,4.9l0,0c2.7,0.1,5-2.1,5-4.8V18.3z"/>
	<line class="st2" x1="36.5" y1="32.9" x2="36.5" y2="17.8"/>
</g>
<g>
	<path class="st3" d="M36.2,42.6v13.4v27.4l0,0c5.5,0,10-4.2,10-9.3V56.4V35.7C45.1,39.9,41,42.5,36.2,42.6z"/>
	<rect x="11.2" y="20.5" class="st3" width="25.3" height="9.8"/>
	<path class="st3" d="M71.6,30.3H46.1v-9.8h25.5c2.3,0,4.2,2.2,4.2,4.9l0,0C75.8,28.1,73.9,30.3,71.6,30.3z"/>
</g>
</svg>
