<?xml version="1.0" standalone="no"?>
<!DOCTYPE svg PUBLIC "-//W3C//DTD SVG 20010904//EN"
 "http://www.w3.org/TR/2001/REC-SVG-20010904/DTD/svg10.dtd">
<svg version="1.0" xmlns="http://www.w3.org/2000/svg"
 width="100.000000pt" height="100.000000pt" viewBox="0 0 100.000000 100.000000"
 preserveAspectRatio="xMidYMid meet">
<metadata>
Created by potrace 1.11, written by Peter Selinger 2001-2013
</metadata>
<g transform="translate(0.000000,100.000000) scale(0.100000,-0.100000)"
fill="#000000" stroke="none">
<path d="M206 845 c-50 -18 -88 -55 -91 -91 -2 -16 -6 -82 -10 -146 -6 -121
-5 -123 31 -119 8 1 6 -19 -7 -61 -40 -133 -67 -266 -56 -277 13 -13 163 -15
171 -3 3 5 7 39 11 76 3 37 7 81 10 99 9 63 17 173 18 251 1 78 1 78 14 40 7
-21 15 -47 17 -58 2 -12 11 -55 20 -96 20 -96 24 -120 36 -205 15 -99 22 -111
67 -120 55 -12 153 -13 160 -2 3 5 7 23 8 40 2 18 6 61 9 97 4 36 9 79 12 95
4 17 6 37 6 45 -1 24 35 67 46 55 5 -5 13 -41 16 -80 8 -86 16 -162 21 -195 3
-14 15 -35 29 -46 20 -18 34 -21 83 -18 104 7 133 11 138 16 6 5 -14 97 -60
279 -32 126 -94 277 -140 339 -91 124 -173 127 -305 11 -35 -31 -50 -38 -50
-23 0 19 -87 93 -120 102 -42 12 -36 12 -84 -5z m70 -152 c-7 -7 -26 7 -26 19
0 6 6 6 15 -2 9 -7 13 -15 11 -17z m377 -124 c-7 -7 -10 1 -10 23 -1 31 0 32
10 10 7 -15 7 -26 0 -33z m-130 1 c-6 -23 -19 -26 -26 -6 -6 16 1 26 19 26 7
0 10 -8 7 -20z m-373 -57 c-11 -17 -11 -17 -6 0 3 10 6 24 7 30 0 9 2 9 5 0 3
-7 0 -20 -6 -30z"/>
</g>
</svg>
